Coordinates
version=1
nRows=6
nColumns=63
inDegrees=yes

Units are S.I. units (second, meters, Newtons, ...)
If the header above contains a line with 'inDegrees', this indicates whether rotational values are in degrees (yes) or radians (no).

endheader
time	pelvis_tilt	pelvis_list	pelvis_rotation	pelvis_tx	pelvis_ty	pelvis_tz	hip_flexion_r	hip_adduction_r	hip_rotation_r	knee_angle_r	knee_angle_r_beta	ankle_angle_r	subtalar_angle_r	mtp_angle_r	hip_flexion_l	hip_adduction_l	hip_rotation_l	knee_angle_l	knee_angle_l_beta	ankle_angle_l	subtalar_angle_l	mtp_angle_l	L5_S1_Flex_Ext	L5_S1_Lat_Bending	L5_S1_axial_rotation	L4_L5_Flex_Ext	L4_L5_Lat_Bending	L4_L5_axial_rotation	L3_L4_Flex_Ext	L3_L4_Lat_Bending	L3_L4_axial_rotation	L2_L3_Flex_Ext	L2_L3_Lat_Bending	L2_L3_axial_rotation	L1_L2_Flex_Ext	L1_L2_Lat_Bending	L1_L2_axial_rotation	L1_T12_Flex_Ext	L1_T12_Lat_Bending	L1_T12_axial_rotation	Abs_r3	Abs_r2	Abs_r1	Abs_t1	Abs_t2	neck_flexion	neck_bending	neck_rotation	arm_flex_r	arm_add_r	arm_rot_r	elbow_flex_r	pro_sup_r	wrist_flex_r	wrist_dev_r	arm_flex_l	arm_add_l	arm_rot_l	elbow_flex_l	pro_sup_l	wrist_flex_l	wrist_dev_l
      3.63829787	      4.15217489	     -6.15105359	     94.19597808	     -0.11757185	      0.76206828	      0.67440048	      8.78192402	      0.55935857	     -9.89891390	     10.62560325	      0.18545176	     28.60576057	      8.44412632	      0.00000000	      8.16540356	     -2.06708403	     -4.79685732	      8.05441569	      0.14057607	     30.78585060	     12.24293265	      0.00000000	      0.14242530	      0.51958483	      0.19673678	      0.26449803	      0.69104783	      0.20903282	      0.23399053	      1.26331856	      0.20903282	      0.16277788	      1.26331856	      0.17214468	      0.13225613	      1.05953739	      0.15984863	      0.08138182	      0.80483690	      0.14755258	      1.01732968	      5.87764753	      1.09419093	      0.00000000	      0.00000000	     27.21879565	     -5.31364508	     -2.26424859	     10.59980708	    -11.37123719	     52.46839263	     41.90393073	     73.58448086	      9.57703438	      8.82353559	     18.37768851	     -2.93208617	     77.70877205	     33.95118947	     44.53795547	     -2.90878043	     -0.30557518
      3.65957447	      4.19752728	     -6.12493990	     94.21986854	     -0.11781395	      0.76221850	      0.67462079	      8.51148077	      0.61350896	     -9.69120036	     10.11740809	      0.17658208	     28.70523466	      8.63399433	      0.00000000	      8.14187313	     -2.06737992	     -4.40052547	      7.91391896	      0.13812394	     30.66788163	     11.74370907	      0.00000000	      0.13926780	      0.52255429	      0.10760799	      0.25863423	      0.69499720	      0.11433349	      0.22880307	      1.27053850	      0.11433349	      0.15916917	      1.27053850	      0.09415699	      0.12932408	      1.06559270	      0.08743149	      0.07957762	      0.80943659	      0.08070599	      0.99477596	      5.91123862	      0.59848337	      0.00000000	      0.00000000	     26.95081025	     -4.76638773	     -1.30905272	     10.56124226	    -11.25354771	     51.76327324	     41.91382113	     75.61718629	      9.31231973	      8.16237549	     18.08952419	     -3.04842715	     76.86729030	     33.88316838	     43.45517973	     -2.14541993	     -0.63139320
      3.68085106	      4.24592489	     -6.07891676	     94.45862124	     -0.11830194	      0.76245050	      0.67470119	      8.14071851	      0.67645554	     -9.42835217	      9.48527060	      0.16554920	     28.71182062	      8.45521079	      0.00000000	      8.14223758	     -2.06460098	     -3.94443881	      7.83480019	      0.13674306	     30.66548036	     11.43630181	      0.00000000	      0.13936128	      0.52551374	     -0.00679426	      0.25880784	      0.69893328	     -0.00721890	      0.22895665	      1.27773411	     -0.00721890	      0.15927601	      1.27773411	     -0.00594498	      0.12941089	      1.07162762	     -0.00552034	      0.07963104	      0.81402079	     -0.00509570	      0.99544371	      5.94471656	     -0.03778765	      0.00000000	      0.00000000	     26.60446659	     -4.03247779	     -0.15115586	     10.50410694	    -11.14302213	     51.00654900	     41.99635184	     77.39043646	      8.63548410	      7.55313015	     17.87359059	     -3.17169613	     76.36665504	     33.85458443	     42.25270198	     -1.58364929	     -1.14293478
      3.70212766	      4.19648984	     -6.04572825	     94.50527238	     -0.11854199	      0.76269878	      0.67459613	      7.84089448	      0.61532349	     -9.52751908	      9.03066413	      0.15761482	     28.91356525	      8.95521969	      0.00000000	      8.06357636	     -1.98987600	     -3.93237260	      7.65412787	      0.13358973	     30.68082508	     11.37354862	      0.00000000	      0.14134314	      0.51463120	     -0.04309370	      0.26248835	      0.68445950	     -0.04578706	      0.23221265	      1.25127431	     -0.04578706	      0.16154107	      1.25127431	     -0.03770699	      0.13125124	      1.04943595	     -0.03501363	      0.08076347	      0.79716373	     -0.03232028	      1.00959992	      5.82161111	     -0.23967424	      0.00000000	      0.00000000	     26.21788847	     -3.51630976	      0.59243319	     10.29920844	    -10.97486375	     49.75048254	     41.94221668	     79.97194519	      8.40227148	      6.57562077	     17.79056963	     -3.30428647	     76.21449051	     33.94312322	     41.41560308	     -1.26500569	     -1.56510754
      3.72340426	      4.14119241	     -6.00260218	     94.63186134	     -0.11882980	      0.76296743	      0.67461865	      7.50397398	      0.57904702	     -9.38004661	      8.52381649	      0.14876866	     28.93082155	      8.90364619	      0.00000000	      8.02961346	     -1.88289777	     -3.58719100	      7.53125547	      0.13144520	     30.68547094	     10.97687578	      0.00000000	      0.13547857	      0.50351368	     -0.10689889	      0.25159725	      0.66967320	     -0.11358007	      0.22257774	      1.22424317	     -0.11358007	      0.15483846	      1.22424317	     -0.09353653	      0.12580540	      1.02676511	     -0.08685535	      0.07741245	      0.77994270	     -0.08017417	      0.96770987	      5.69584750	     -0.59453955	      0.00000000	      0.00000000	     25.93628725	     -2.90659993	      1.59248310	     10.58232280	    -11.01986802	     50.35545541	     41.88631135	     79.71899675	      7.35211515	      5.95468856	     17.75549679	     -3.48525855	     75.66690358	     33.97796315	     41.95902235	     -0.70371955	     -2.13437986
      3.74468085	      4.08591411	     -5.99610717	     94.78834416	     -0.11915901	      0.76324066	      0.67486909	      7.28828726	      0.49916820	     -9.72374026	      8.18362886	      0.14283127	     28.81966893	      9.26895435	      0.00000000	      8.07194824	     -1.77885582	     -3.26344300	      7.45072130	      0.13003962	     30.78318903	     10.69500796	      0.00000000	      0.12947758	      0.49351482	     -0.13790154	      0.24045282	      0.65637471	     -0.14652039	      0.21271872	      1.19993194	     -0.14652039	      0.14797993	      1.19993194	     -0.12066385	      0.12023288	      1.00637543	     -0.11204500	      0.07398349	      0.76445446	     -0.10342616	      0.92484542	      5.58273838	     -0.76696700	      0.00000000	      0.00000000	     25.73564094	     -2.67231822	      2.11994873	     10.77644348	    -11.00065948	     50.44014750	     41.59752407	     80.88454955	      6.91613047	      4.84918416	     17.88963716	     -3.62088669	     75.00682663	     34.06102499	     43.44721937	     -0.05272773	     -2.36187621
